<svg width="44" height="48" viewBox="0 0 44 48" fill="none" xmlns="http://www.w3.org/2000/svg">
<path d="M10.5714 0.576416V16.3444M33.4286 0.576416V16.3444M14.8571 27.3819L20.5714 33.6891L30.5714 21.0748M4.85714 8.46039H39.1429C39.9006 8.46039 40.6273 8.79264 41.1632 9.38406C41.699 9.97547 42 10.7776 42 11.614V43.1499C42 43.9863 41.699 44.7884 41.1632 45.3798C40.6273 45.9712 39.9006 46.3035 39.1429 46.3035H4.85714C4.09938 46.3035 3.37266 45.9712 2.83684 45.3798C2.30102 44.7884 2 43.9863 2 43.1499V11.614C2 10.7776 2.30102 9.97547 2.83684 9.38406C3.37266 8.79264 4.09938 8.46039 4.85714 8.46039Z" stroke="#4985FF" stroke-opacity="0.75" stroke-width="3"/>
</svg>
