<svg width="45" height="51" viewBox="0 0 45 51" fill="none" xmlns="http://www.w3.org/2000/svg">
<mask id="path-1-inside-1_3_23" fill="white">
<path d="M6 41.8235V43.4965H9V41.8235H6ZM21 41.8235V43.4965H24V41.8235H21ZM9 41.8235V40.1506H6V41.8235H9ZM21 40.1506V41.8235H24V40.1506H21ZM15 33.4588C16.5913 33.4588 18.1174 34.1638 19.2426 35.4188C20.3679 36.6737 21 38.3758 21 40.1506H24C24 37.4884 23.0518 34.9353 21.364 33.0529C19.6761 31.1705 17.3869 30.1129 15 30.1129V33.4588ZM9 40.1506C9 38.3758 9.63214 36.6737 10.7574 35.4188C11.8826 34.1638 13.4087 33.4588 15 33.4588V30.1129C12.6131 30.1129 10.3239 31.1705 8.63604 33.0529C6.94821 34.9353 6 37.4884 6 40.1506H9ZM15 13.3835C13.4087 13.3835 11.8826 14.0886 10.7574 15.3435C9.63214 16.5985 9 18.3005 9 20.0753H12C12 19.1879 12.3161 18.3369 12.8787 17.7094C13.4413 17.0819 14.2044 16.7294 15 16.7294V13.3835ZM21 20.0753C21 18.3005 20.3679 16.5985 19.2426 15.3435C18.1174 14.0886 16.5913 13.3835 15 13.3835V16.7294C15.7956 16.7294 16.5587 17.0819 17.1213 17.7094C17.6839 18.3369 18 19.1879 18 20.0753H21ZM15 26.7671C16.5913 26.7671 18.1174 26.062 19.2426 24.8071C20.3679 23.5521 21 21.8501 21 20.0753H18C18 20.9627 17.6839 21.8137 17.1213 22.4412C16.5587 23.0687 15.7956 23.4212 15 23.4212V26.7671ZM15 23.4212C14.2044 23.4212 13.4413 23.0687 12.8787 22.4412C12.3161 21.8137 12 20.9627 12 20.0753H9C9 21.8501 9.63214 23.5521 10.7574 24.8071C11.8826 26.062 13.4087 26.7671 15 26.7671V23.4212ZM4.5 10.0376H40.5V6.69176H4.5V10.0376ZM42 11.7106V38.4776H45V11.7106H42ZM40.5 40.1506H4.5V43.4965H40.5V40.1506ZM3 38.4776V11.7106H0V38.4776H3ZM4.5 40.1506C4.10218 40.1506 3.72064 39.9743 3.43934 39.6606C3.15804 39.3469 3 38.9213 3 38.4776H0C0 39.8087 0.474106 41.0853 1.31802 42.0265C2.16193 42.9677 3.30653 43.4965 4.5 43.4965V40.1506ZM42 38.4776C42 38.9213 41.842 39.3469 41.5607 39.6606C41.2794 39.9743 40.8978 40.1506 40.5 40.1506V43.4965C41.6935 43.4965 42.8381 42.9677 43.682 42.0265C44.5259 41.0853 45 39.8087 45 38.4776H42ZM40.5 10.0376C40.8978 10.0376 41.2794 10.2139 41.5607 10.5276C41.842 10.8414 42 11.2669 42 11.7106H45C45 10.3795 44.5259 9.10296 43.682 8.16174C42.8381 7.22053 41.6935 6.69176 40.5 6.69176V10.0376ZM4.5 6.69176C3.30653 6.69176 2.16193 7.22053 1.31802 8.16174C0.474106 9.10296 0 10.3795 0 11.7106H3C3 11.2669 3.15804 10.8414 3.43934 10.5276C3.72064 10.2139 4.10218 10.0376 4.5 10.0376V6.69176ZM27 20.0753H36V16.7294H27V20.0753ZM27 30.1129H36V26.7671H27V30.1129ZM0 50.1882H45V46.8424H0V50.1882ZM9 0V8.36471H12V0H9ZM33 0V8.36471H36V0H33Z"/>
</mask>
<path d="M6 41.8235V43.4965H9V41.8235H6ZM21 41.8235V43.4965H24V41.8235H21ZM9 41.8235V40.1506H6V41.8235H9ZM21 40.1506V41.8235H24V40.1506H21ZM15 33.4588C16.5913 33.4588 18.1174 34.1638 19.2426 35.4188C20.3679 36.6737 21 38.3758 21 40.1506H24C24 37.4884 23.0518 34.9353 21.364 33.0529C19.6761 31.1705 17.3869 30.1129 15 30.1129V33.4588ZM9 40.1506C9 38.3758 9.63214 36.6737 10.7574 35.4188C11.8826 34.1638 13.4087 33.4588 15 33.4588V30.1129C12.6131 30.1129 10.3239 31.1705 8.63604 33.0529C6.94821 34.9353 6 37.4884 6 40.1506H9ZM15 13.3835C13.4087 13.3835 11.8826 14.0886 10.7574 15.3435C9.63214 16.5985 9 18.3005 9 20.0753H12C12 19.1879 12.3161 18.3369 12.8787 17.7094C13.4413 17.0819 14.2044 16.7294 15 16.7294V13.3835ZM21 20.0753C21 18.3005 20.3679 16.5985 19.2426 15.3435C18.1174 14.0886 16.5913 13.3835 15 13.3835V16.7294C15.7956 16.7294 16.5587 17.0819 17.1213 17.7094C17.6839 18.3369 18 19.1879 18 20.0753H21ZM15 26.7671C16.5913 26.7671 18.1174 26.062 19.2426 24.8071C20.3679 23.5521 21 21.8501 21 20.0753H18C18 20.9627 17.6839 21.8137 17.1213 22.4412C16.5587 23.0687 15.7956 23.4212 15 23.4212V26.7671ZM15 23.4212C14.2044 23.4212 13.4413 23.0687 12.8787 22.4412C12.3161 21.8137 12 20.9627 12 20.0753H9C9 21.8501 9.63214 23.5521 10.7574 24.8071C11.8826 26.062 13.4087 26.7671 15 26.7671V23.4212ZM4.5 10.0376H40.5V6.69176H4.5V10.0376ZM42 11.7106V38.4776H45V11.7106H42ZM40.5 40.1506H4.5V43.4965H40.5V40.1506ZM3 38.4776V11.7106H0V38.4776H3ZM4.5 40.1506C4.10218 40.1506 3.72064 39.9743 3.43934 39.6606C3.15804 39.3469 3 38.9213 3 38.4776H0C0 39.8087 0.474106 41.0853 1.31802 42.0265C2.16193 42.9677 3.30653 43.4965 4.5 43.4965V40.1506ZM42 38.4776C42 38.9213 41.842 39.3469 41.5607 39.6606C41.2794 39.9743 40.8978 40.1506 40.5 40.1506V43.4965C41.6935 43.4965 42.8381 42.9677 43.682 42.0265C44.5259 41.0853 45 39.8087 45 38.4776H42ZM40.5 10.0376C40.8978 10.0376 41.2794 10.2139 41.5607 10.5276C41.842 10.8414 42 11.2669 42 11.7106H45C45 10.3795 44.5259 9.10296 43.682 8.16174C42.8381 7.22053 41.6935 6.69176 40.5 6.69176V10.0376ZM4.5 6.69176C3.30653 6.69176 2.16193 7.22053 1.31802 8.16174C0.474106 9.10296 0 10.3795 0 11.7106H3C3 11.2669 3.15804 10.8414 3.43934 10.5276C3.72064 10.2139 4.10218 10.0376 4.5 10.0376V6.69176ZM27 20.0753H36V16.7294H27V20.0753ZM27 30.1129H36V26.7671H27V30.1129ZM0 50.1882H45V46.8424H0V50.1882ZM9 0V8.36471H12V0H9ZM33 0V8.36471H36V0H33Z" stroke="#4985FF" stroke-opacity="0.75" stroke-width="4" mask="url(#path-1-inside-1_3_23)"/>
</svg>
