<svg width="45" height="59" viewBox="0 0 45 59" fill="none" xmlns="http://www.w3.org/2000/svg">
<path d="M27.625 21.633H34.4583C36.7237 21.633 38.8963 20.6048 40.4982 18.7747C42.1001 16.9446 43 14.4624 43 11.8742C43 9.28598 42.1001 6.80378 40.4982 4.97365C38.8963 3.14352 36.7237 2.11536 34.4583 2.11536H10.5417C8.27628 2.11536 6.10367 3.14352 4.5018 4.97365C2.89992 6.80378 2 9.28598 2 11.8742C2 14.4624 2.89992 16.9446 4.5018 18.7747C6.10367 20.6048 8.27628 21.633 10.5417 21.633M15.6667 39.1989V33.3436V39.1989ZM15.6667 33.3436V13.8259C15.6667 12.7907 16.0266 11.7978 16.6674 11.0657C17.3081 10.3337 18.1772 9.92242 19.0833 9.92242C19.9895 9.92242 20.8585 10.3337 21.4993 11.0657C22.14 11.7978 22.5 12.7907 22.5 13.8259V29.4401H33.9561C37.0652 29.4401 39.5833 32.317 39.5833 35.8692V39.1989C39.5833 43.8576 37.9635 48.3256 35.0801 51.6198C32.1967 54.9141 28.286 56.7648 24.2083 56.7648H22.5C18.8754 56.7648 15.3992 55.1197 12.8362 52.1915C10.2732 49.2633 8.83333 45.2918 8.83333 41.1507C8.83333 39.0801 9.55327 37.0943 10.8348 35.6302C12.1163 34.1661 13.8544 33.3436 15.6667 33.3436V33.3436Z" stroke="#4985FF" stroke-opacity="0.75" stroke-width="3"/>
</svg>
